<svg xmlns="http://www.w3.org/2000/svg" xmlns:xlink="http://www.w3.org/1999/xlink" xmlns:lucid="lucid" width="1502" height="918"><g transform="translate(-39 157)" lucid:page-tab-id="0_0"><path d="M300 266a6 6 0 0 1 6-6h148a6 6 0 0 1 6 6v108a6 6 0 0 1-6 6H306a6 6 0 0 1-6-6z" stroke="#000" stroke-width="2" fill="#fff"/><use xlink:href="#a" transform="matrix(1,0,0,1,312,272) translate(38.491536458333336 57.52777777777778)"/><path d="M300 446a6 6 0 0 1 6-6h148a6 6 0 0 1 6 6v108a6 6 0 0 1-6 6H306a6 6 0 0 1-6-6z" stroke="#000" stroke-width="2" fill="#fff"/><use xlink:href="#b" transform="matrix(1,0,0,1,312,452) translate(38.491536458333336 57.52777777777778)"/><path d="M300 626a6 6 0 0 1 6-6h148a6 6 0 0 1 6 6v108a6 6 0 0 1-6 6H306a6 6 0 0 1-6-6z" stroke="#000" stroke-width="2" fill="#fff"/><use xlink:href="#c" transform="matrix(1,0,0,1,312,632) translate(25.687717013888893 57.52777777777778)"/><path d="M560 266a6 6 0 0 1 6-6h148a6 6 0 0 1 6 6v108a6 6 0 0 1-6 6H566a6 6 0 0 1-6-6z" stroke="#000" stroke-width="2" fill="#fff"/><use xlink:href="#d" transform="matrix(1,0,0,1,572,272) translate(49.92274305555556 57.52777777777778)"/><path d="M560 446a6 6 0 0 1 6-6h148a6 6 0 0 1 6 6v108a6 6 0 0 1-6 6H566a6 6 0 0 1-6-6z" stroke="#000" stroke-width="2" fill="#fff"/><use xlink:href="#d" transform="matrix(1,0,0,1,572,452) translate(49.92274305555556 57.52777777777778)"/><path d="M560 626a6 6 0 0 1 6-6h148a6 6 0 0 1 6 6v108a6 6 0 0 1-6 6H566a6 6 0 0 1-6-6z" stroke="#000" stroke-width="2" fill="#fff"/><use xlink:href="#d" transform="matrix(1,0,0,1,572,632) translate(49.92274305555556 57.52777777777778)"/><path d="M820 266a6 6 0 0 1 6-6h148a6 6 0 0 1 6 6v108a6 6 0 0 1-6 6H826a6 6 0 0 1-6-6z" stroke="#000" stroke-width="2" fill="#fff"/><use xlink:href="#e" transform="matrix(1,0,0,1,832,272) translate(45.370876736111114 57.52777777777778)"/><path d="M820 446a6 6 0 0 1 6-6h148a6 6 0 0 1 6 6v108a6 6 0 0 1-6 6H826a6 6 0 0 1-6-6z" stroke="#000" stroke-width="2" fill="#fff"/><use xlink:href="#e" transform="matrix(1,0,0,1,832,452) translate(45.370876736111114 57.52777777777778)"/><path d="M820 626a6 6 0 0 1 6-6h148a6 6 0 0 1 6 6v108a6 6 0 0 1-6 6H826a6 6 0 0 1-6-6z" stroke="#000" stroke-width="2" fill="#fff"/><use xlink:href="#e" transform="matrix(1,0,0,1,832,632) translate(45.370876736111114 57.52777777777778)"/><path d="M1080 266a6 6 0 0 1 6-6h188a6 6 0 0 1 6 6v488a6 6 0 0 1-6 6h-188a6 6 0 0 1-6-6z" stroke="#000" stroke-width="2" fill="#fff"/><use xlink:href="#f" transform="matrix(1,0,0,1,1092,272) translate(10.140842013888886 229.77777777777777)"/><use xlink:href="#g" transform="matrix(1,0,0,1,1092,272) translate(102.53450520833333 229.77777777777777)"/><use xlink:href="#h" transform="matrix(1,0,0,1,1092,272) translate(48.21592881944444 262.04340277777777)"/><use xlink:href="#i" transform="matrix(1,0,0,1,1092,272) translate(74.69162326388889 262.04340277777777)"/><path d="M1380 646a6 6 0 0 1 6-6h148a6 6 0 0 1 6 6v108a6 6 0 0 1-6 6h-148a6 6 0 0 1-6-6z" stroke="#000" stroke-width="2" fill="#fff"/><use xlink:href="#j" transform="matrix(1,0,0,1,1392,652) translate(31.56879340277778 57.52777777777778)"/><path d="M1378.5 700H1336a6 6 0 0 1-6-6V516a6 6 0 0 0-6-6h-26.62" stroke="#3a414a" fill="none"/><path d="M1379 700.48h-.5v-.96h.5z" stroke="#3a414a" stroke-width=".05" fill="#3a414a"/><path d="M1282.62 510l14.26-4.63v9.26z" stroke="#3a414a" fill="#3a414a"/><path d="M981.5 320h42.5a6 6 0 0 1 6 6v8.27a6 6 0 0 0 6 6h26.62" stroke="#3a414a" fill="none"/><path d="M981.5 320.48h-.5v-.96h.5z" stroke="#3a414a" stroke-width=".05" fill="#3a414a"/><path d="M1077.38 340.27l-14.26 4.63v-9.27z" stroke="#3a414a" fill="#3a414a"/><path d="M981.5 680h42.5a6 6 0 0 0 6-6v-9.04a6 6 0 0 1 6-6h26.62" stroke="#3a414a" fill="none"/><path d="M981.5 680.48h-.5v-.96h.5z" stroke="#3a414a" stroke-width=".05" fill="#3a414a"/><path d="M1077.38 658.96l-14.26 4.63v-9.27z" stroke="#3a414a" fill="#3a414a"/><path d="M981.5 500h43.5a5 5 0 0 1 5 5 5 5 0 0 0 5 5h27.62" stroke="#3a414a" fill="none"/><path d="M981.5 500.48h-.5v-.96h.5z" stroke="#3a414a" stroke-width=".05" fill="#3a414a"/><path d="M1077.38 510l-14.26 4.63v-9.26z" stroke="#3a414a" fill="#3a414a"/><path d="M721.5 320h81.12" stroke="#3a414a" fill="none"/><path d="M721.5 320.48h-.5v-.96h.5z" stroke="#3a414a" stroke-width=".05" fill="#3a414a"/><path d="M817.38 320l-14.26 4.63v-9.26z" stroke="#3a414a" fill="#3a414a"/><path d="M721.5 500h81.12" stroke="#3a414a" fill="none"/><path d="M721.5 500.48h-.5v-.96h.5z" stroke="#3a414a" stroke-width=".05" fill="#3a414a"/><path d="M817.38 500l-14.26 4.63v-9.26z" stroke="#3a414a" fill="#3a414a"/><path d="M721.5 680h81.12" stroke="#3a414a" fill="none"/><path d="M721.5 680.48h-.5v-.96h.5z" stroke="#3a414a" stroke-width=".05" fill="#3a414a"/><path d="M817.38 680l-14.26 4.63v-9.26z" stroke="#3a414a" fill="#3a414a"/><path d="M461.5 680h81.12" stroke="#3a414a" fill="none"/><path d="M461.5 680.48h-.5v-.96h.5z" stroke="#3a414a" stroke-width=".05" fill="#3a414a"/><path d="M557.38 680l-14.26 4.63v-9.26z" stroke="#3a414a" fill="#3a414a"/><path d="M461.5 500h81.12" stroke="#3a414a" fill="none"/><path d="M461.5 500.48h-.5v-.96h.5z" stroke="#3a414a" stroke-width=".05" fill="#3a414a"/><path d="M557.38 500l-14.26 4.63v-9.26z" stroke="#3a414a" fill="#3a414a"/><path d="M558.5 320h-81.12" stroke="#3a414a" fill="none"/><path d="M559 320.48h-.5v-.96h.5z" stroke="#3a414a" stroke-width=".05" fill="#3a414a"/><path d="M462.62 320l14.26-4.63v9.26z" stroke="#3a414a" fill="#3a414a"/><path d="M40 266a6 6 0 0 1 6-6h148a6 6 0 0 1 6 6v108a6 6 0 0 1-6 6H46a6 6 0 0 1-6-6z" stroke="#000" stroke-width="2" fill="#fff"/><use xlink:href="#k" transform="matrix(1,0,0,1,52,272) translate(42.12651909722223 57.52777777777778)"/><path d="M40 446a6 6 0 0 1 6-6h148a6 6 0 0 1 6 6v108a6 6 0 0 1-6 6H46a6 6 0 0 1-6-6z" stroke="#000" stroke-width="2" fill="#fff"/><use xlink:href="#k" transform="matrix(1,0,0,1,52,452) translate(42.12651909722223 57.52777777777778)"/><path d="M40 626a6 6 0 0 1 6-6h148a6 6 0 0 1 6 6v108a6 6 0 0 1-6 6H46a6 6 0 0 1-6-6z" stroke="#000" stroke-width="2" fill="#fff"/><use xlink:href="#l" transform="matrix(1,0,0,1,52,632) translate(42.12651909722223 57.52777777777778)"/><path d="M300 626a6 6 0 0 1 6-6h148a6 6 0 0 1 6 6v108a6 6 0 0 1-6 6H306a6 6 0 0 1-6-6z" stroke="#000" stroke-width="2" fill="#fff"/><use xlink:href="#m" transform="matrix(1,0,0,1,311.99999999999994,632) translate(38.491536458333336 57.52777777777778)"/><path d="M201.5 680h81.12" stroke="#3a414a" fill="none"/><path d="M201.5 680.48h-.5v-.96h.5z" stroke="#3a414a" stroke-width=".05" fill="#3a414a"/><path d="M297.38 680l-14.26 4.63v-9.26z" stroke="#3a414a" fill="#3a414a"/><path d="M201.5 500h81.12" stroke="#3a414a" fill="none"/><path d="M201.5 500.48h-.5v-.96h.5z" stroke="#3a414a" stroke-width=".05" fill="#3a414a"/><path d="M297.38 500l-14.26 4.63v-9.26z" stroke="#3a414a" fill="#3a414a"/><path d="M201.5 320h81.12" stroke="#3a414a" fill="none"/><path d="M201.5 320.48h-.5v-.96h.5z" stroke="#3a414a" stroke-width=".05" fill="#3a414a"/><path d="M297.38 320l-14.26 4.63v-9.26z" stroke="#3a414a" fill="#3a414a"/><path d="M40 86a6 6 0 0 1 6-6h928a6 6 0 0 1 6 6v108a6 6 0 0 1-6 6H46a6 6 0 0 1-6-6z" stroke="#000" stroke-width="2" fill="#fff"/><use xlink:href="#n" transform="matrix(1,0,0,1,52.00000000000006,92) translate(428.93641493055554 57.52777777777778)"/><path d="M1380 266a6 6 0 0 1 6-6h148a6 6 0 0 1 6 6v268a6 6 0 0 1-6 6h-148a6 6 0 0 1-6-6z" stroke="#000" stroke-width="2" fill="#fff"/><use xlink:href="#o" transform="matrix(1,0,0,1,1392,272) translate(37.43901909722223 133.52777777777777)"/><path d="M1460 541.5v81.12" stroke="#3a414a" fill="none"/><path d="M1460.47 541.5h-.94v-.5h.94z" stroke="#3a414a" stroke-width=".05" fill="#3a414a"/><path d="M1460 637.38l-4.63-14.26h9.27z" stroke="#3a414a" fill="#3a414a"/><path d="M1460 258.5V146a6 6 0 0 0-6-6H997.38" stroke="#3a414a" fill="none"/><path d="M1460.47 259h-.94v-.5h.94z" stroke="#3a414a" stroke-width=".05" fill="#3a414a"/><path d="M982.62 140l14.26-4.63v9.26z" stroke="#3a414a" fill="#3a414a"/><path d="M900 258.5v-41.12" stroke="#3a414a" fill="none"/><path d="M900.48 259h-.96v-.5h.96z" stroke="#3a414a" stroke-width=".05" fill="#3a414a"/><path d="M900 202.62l4.63 14.26h-9.26z" stroke="#3a414a" fill="#3a414a"/><path d="M900 438.5V416a6 6 0 0 0-6-6h-81.52a6 6 0 0 1-6-6V217.38" stroke="#3a414a" fill="none"/><path d="M900.48 439h-.96v-.5h.96z" stroke="#3a414a" stroke-width=".05" fill="#3a414a"/><path d="M806.48 202.62l4.64 14.26h-9.27z" stroke="#3a414a" fill="#3a414a"/><path d="M900 618.5V596a6 6 0 0 0-6-6H776.73a6 6 0 0 1-6-6V217.38" stroke="#3a414a" fill="none"/><path d="M900.48 619h-.96v-.5h.96z" stroke="#3a414a" stroke-width=".05" fill="#3a414a"/><path d="M770.73 202.62l4.63 14.26h-9.27z" stroke="#3a414a" fill="#3a414a"/><path d="M640 258.5v-41.12" stroke="#3a414a" fill="none"/><path d="M640.48 259h-.96v-.5h.96z" stroke="#3a414a" stroke-width=".05" fill="#3a414a"/><path d="M640 202.62l4.63 14.26h-9.26z" stroke="#3a414a" fill="#3a414a"/><path d="M640 438.5V416a6 6 0 0 0-6-6h-77.15a6 6 0 0 1-6-6V217.38" stroke="#3a414a" fill="none"/><path d="M640.48 439h-.96v-.5h.96z" stroke="#3a414a" stroke-width=".05" fill="#3a414a"/><path d="M550.85 202.62l4.64 14.26h-9.28z" stroke="#3a414a" fill="#3a414a"/><path d="M640 618.5V596a6 6 0 0 0-6-6H525.27a6 6 0 0 1-6-6V217.38" stroke="#3a414a" fill="none"/><path d="M640.48 619h-.96v-.5h.96z" stroke="#3a414a" stroke-width=".05" fill="#3a414a"/><path d="M519.27 202.62l4.63 14.26h-9.27z" stroke="#3a414a" fill="#3a414a"/><path d="M380 258.5v-41.12" stroke="#3a414a" fill="none"/><path d="M380.48 259h-.96v-.5h.96z" stroke="#3a414a" stroke-width=".05" fill="#3a414a"/><path d="M380 202.62l4.63 14.26h-9.26z" stroke="#3a414a" fill="#3a414a"/><path d="M380 438.5V416a6 6 0 0 0-6-6h-86.75a6 6 0 0 1-6-6V217.38" stroke="#3a414a" fill="none"/><path d="M380.48 439h-.96v-.5h.96z" stroke="#3a414a" stroke-width=".05" fill="#3a414a"/><path d="M281.25 202.62l4.63 14.26h-9.27z" stroke="#3a414a" fill="#3a414a"/><path d="M380 618.5V586a6 6 0 0 0-6-6h-98.76a6 6 0 0 1-6-6V217.38" stroke="#3a414a" fill="none"/><path d="M380.48 619h-.96v-.5h.96z" stroke="#3a414a" stroke-width=".05" fill="#3a414a"/><path d="M269.24 202.62l4.63 14.26h-9.27z" stroke="#3a414a" fill="#3a414a"/><path d="M120 618.5V586a6 6 0 0 1 6-6h126.22a6 6 0 0 0 6-6V217.38" stroke="#3a414a" fill="none"/><path d="M120.47 619h-.94v-.5h.94z" stroke="#3a414a" stroke-width=".05" fill="#3a414a"/><path d="M258.23 202.62l4.63 14.26h-9.27z" stroke="#3a414a" fill="#3a414a"/><path d="M120 438.5V416a6 6 0 0 1 6-6h114.22a6 6 0 0 0 6-6V217.38" stroke="#3a414a" fill="none"/><path d="M120.47 439h-.94v-.5h.94z" stroke="#3a414a" stroke-width=".05" fill="#3a414a"/><path d="M246.22 202.62l4.63 14.26h-9.27z" stroke="#3a414a" fill="#3a414a"/><path d="M120 258.5v-41.12" stroke="#3a414a" fill="none"/><path d="M120.47 259h-.94v-.5h.94z" stroke="#3a414a" stroke-width=".05" fill="#3a414a"/><path d="M120 202.62l4.64 14.26h-9.28z" stroke="#3a414a" fill="#3a414a"/><path d="M40-94a6 6 0 0 1 6-6h928a6 6 0 0 1 6 6V14a6 6 0 0 1-6 6H46a6 6 0 0 1-6-6z" stroke="#000" stroke-width="2" fill="#fff"/><use xlink:href="#p" transform="matrix(1,0,0,1,52.00000000000006,-88) translate(392.033203125 57.52777777777778)"/><path d="M510 78.5V37.38" stroke="#3a414a" fill="none"/><path d="M510.48 79h-.96v-.5h.96z" stroke="#3a414a" stroke-width=".05" fill="#3a414a"/><path d="M510 22.62l4.63 14.26h-9.26z" stroke="#3a414a" fill="#3a414a"/><path d="M1460 258.5V-34a6 6 0 0 0-6-6H997.38" stroke="#3a414a" fill="none"/><path d="M1460.47 259h-.94v-.5h.94z" stroke="#3a414a" stroke-width=".05" fill="#3a414a"/><path d="M982.62-40l14.26-4.63v9.27z" stroke="#3a414a" fill="#3a414a"/><defs><path d="M52 0l541-1490h220L1361 0h-200l-149-416H398L254 0H52zm404-582h497c-103-290-145-390-251-756-108 377-145 460-246 756" id="q"/><path d="M538 24C308 24 148-78 108-271l171-41c32 123 123 178 257 178 156 0 256-77 256-169 0-77-54-128-164-154l-186-44c-203-48-300-148-300-305 0-192 176-326 414-326 230 0 351 112 402 269l-163 42c-31-80-94-158-238-158-133 0-233 69-233 162 0 83 57 129 188 160l169 40c203 48 298 149 298 302 0 196-179 339-441 339" id="r"/><path d="M628 24c-324 0-524-230-524-574 0-343 198-582 503-582 237 0 487 146 487 559v75H286c9 234 145 362 343 362 132 0 231-58 273-172l174 48C1024-91 857 24 628 24zM287-650h624c-17-190-120-322-304-322-192 0-309 151-320 322" id="s"/><path d="M598-1118v154H368v674c0 100 37 144 132 144 23 0 62-6 92-12L629-6c-37 13-88 20-134 20-193 0-307-107-307-290v-688H20v-154h168v-266h180v266h230" id="t"/><g id="a"><use transform="matrix(0.010850694444444444,0,0,0.010850694444444444,0,0)" xlink:href="#q"/><use transform="matrix(0.010850694444444444,0,0,0.010850694444444444,15.33203125,0)" xlink:href="#r"/><use transform="matrix(0.010850694444444444,0,0,0.010850694444444444,27.061631944444443,0)" xlink:href="#r"/><use transform="matrix(0.010850694444444444,0,0,0.010850694444444444,38.791232638888886,0)" xlink:href="#s"/><use transform="matrix(0.010850694444444444,0,0,0.010850694444444444,51.74696180555556,0)" xlink:href="#t"/></g><g id="b"><use transform="matrix(0.010850694444444444,0,0,0.010850694444444444,0,0)" xlink:href="#q"/><use transform="matrix(0.010850694444444444,0,0,0.010850694444444444,15.33203125,0)" xlink:href="#r"/><use transform="matrix(0.010850694444444444,0,0,0.010850694444444444,27.061631944444443,0)" xlink:href="#r"/><use transform="matrix(0.010850694444444444,0,0,0.010850694444444444,38.791232638888886,0)" xlink:href="#s"/><use transform="matrix(0.010850694444444444,0,0,0.010850694444444444,51.74696180555556,0)" xlink:href="#t"/></g><path d="M180 0v-1490h510c348 0 508 209 508 474 0 266-160 477-507 477H370V0H180zm190-706h312c236 0 327-133 327-310 0-176-91-307-329-307H370v617" id="u"/><path d="M158 0v-1118h174v172h12c41-113 157-188 290-188 26 0 70 2 91 3v181c-11-2-60-10-108-10-161 0-279 109-279 260V0H158" id="v"/><path d="M613 24c-304 0-509-231-509-576 0-350 205-580 509-580 305 0 511 230 511 580 0 345-206 576-511 576zm0-161c226 0 329-195 329-415 0-222-103-419-329-419-223 0-326 196-326 419 0 220 103 415 326 415" id="w"/><path d="M613 24c-304 0-509-231-509-576 0-350 205-580 509-580 216 0 392 114 453 309l-173 49c-33-115-133-197-280-197-223 0-326 196-326 419 0 220 103 415 326 415 150 0 252-85 285-206l172 49C1010-95 832 24 613 24" id="x"/><g id="c"><use transform="matrix(0.010850694444444444,0,0,0.010850694444444444,0,0)" xlink:href="#u"/><use transform="matrix(0.010850694444444444,0,0,0.010850694444444444,14.192708333333332,0)" xlink:href="#v"/><use transform="matrix(0.010850694444444444,0,0,0.010850694444444444,22.189670138888886,0)" xlink:href="#w"/><use transform="matrix(0.010850694444444444,0,0,0.010850694444444444,35.514322916666664,0)" xlink:href="#x"/><use transform="matrix(0.010850694444444444,0,0,0.010850694444444444,48.209635416666664,0)" xlink:href="#s"/><use transform="matrix(0.010850694444444444,0,0,0.010850694444444444,61.16536458333333,0)" xlink:href="#r"/><use transform="matrix(0.010850694444444444,0,0,0.010850694444444444,72.89496527777777,0)" xlink:href="#r"/></g><g id="d"><use transform="matrix(0.010850694444444444,0,0,0.010850694444444444,0,0)" xlink:href="#x"/><use transform="matrix(0.010850694444444444,0,0,0.010850694444444444,12.6953125,0)" xlink:href="#r"/><use transform="matrix(0.010850694444444444,0,0,0.010850694444444444,24.424913194444443,0)" xlink:href="#r"/></g><path d="M338-670V0H158v-1490h180v566c73-149 190-208 336-208 226 0 379 139 379 422V0H872v-695c0-172-96-275-252-275-161 0-282 109-282 300" id="y"/><path d="M158 0v-1118h175l1 205c55-151 181-225 313-225 147 0 245 90 285 228 53-141 190-228 352-228 194 0 352 125 352 384V0h-181v-749c0-161-105-225-225-225-151 0-243 103-243 244V0H807v-767c0-124-93-207-219-207-131 0-250 92-250 270V0H158" id="z"/><path d="M338-1490V0H158v-1490h180" id="A"/><g id="e"><use transform="matrix(0.010850694444444444,0,0,0.010850694444444444,0,0)" xlink:href="#y"/><use transform="matrix(0.010850694444444444,0,0,0.010850694444444444,13.140190972222221,0)" xlink:href="#t"/><use transform="matrix(0.010850694444444444,0,0,0.010850694444444444,20.41015625,0)" xlink:href="#z"/><use transform="matrix(0.010850694444444444,0,0,0.010850694444444444,39.87630208333333,0)" xlink:href="#A"/></g><path d="M783 20c-382 0-661-292-661-764 0-473 279-766 661-766 302 0 548 182 601 489h-190c-42-204-217-313-411-313-268 0-476 208-476 590 0 381 209 588 476 588 195 0 369-110 411-313h190c-52 303-296 489-601 489" id="B"/><path d="M158 0v-1118h180V0H158zm91-1301c-68 0-125-53-125-119s57-119 125-119c69 0 126 53 126 119s-57 119-126 119" id="C"/><g id="f"><use transform="matrix(0.010850694444444444,0,0,0.010850694444444444,0,0)" xlink:href="#B"/><use transform="matrix(0.010850694444444444,0,0,0.010850694444444444,16.23263888888889,0)" xlink:href="#y"/><use transform="matrix(0.010850694444444444,0,0,0.010850694444444444,29.37282986111111,0)" xlink:href="#w"/><use transform="matrix(0.010850694444444444,0,0,0.010850694444444444,42.697482638888886,0)" xlink:href="#C"/><use transform="matrix(0.010850694444444444,0,0,0.010850694444444444,48.07942708333333,0)" xlink:href="#r"/><use transform="matrix(0.010850694444444444,0,0,0.010850694444444444,59.80902777777778,0)" xlink:href="#C"/><use transform="matrix(0.010850694444444444,0,0,0.010850694444444444,65.19097222222221,0)" xlink:href="#v"/><use transform="matrix(0.010850694444444444,0,0,0.010850694444444444,73.18793402777777,0)" xlink:href="#s"/></g><path d="M471 26C259 26 90-98 90-318c0-256 228-303 435-329 202-27 287-16 287-108 0-139-79-219-234-219-161 0-248 86-283 164l-173-57c86-203 278-265 451-265 150 0 419 46 419 395V0H815v-152h-12C765-73 660 26 471 26zm31-159c199 0 310-134 310-271v-155c-30 35-226 55-295 64-131 17-246 59-246 186 0 116 97 176 231 176" id="D"/><path d="M140 405l46-156c120 36 205 19 263-150l32-93L54-1118h197c107 313 237 620 324 950 87-331 219-637 326-950h196L606 167c-68 178-176 259-334 259-64 0-113-12-132-21" id="E"/><path d="M537 14c-226 0-379-139-379-422v-710h180v695c0 172 97 275 253 275 160 0 281-109 281-300v-670h181V0H879v-209C806-46 684 14 537 14" id="F"/><g id="g"><use transform="matrix(0.010850694444444444,0,0,0.010850694444444444,0,0)" xlink:href="#A"/><use transform="matrix(0.010850694444444444,0,0,0.010850694444444444,5.381944444444445,0)" xlink:href="#D"/><use transform="matrix(0.010850694444444444,0,0,0.010850694444444444,17.53472222222222,0)" xlink:href="#E"/><use transform="matrix(0.010850694444444444,0,0,0.010850694444444444,29.58984375,0)" xlink:href="#w"/><use transform="matrix(0.010850694444444444,0,0,0.010850694444444444,42.91449652777778,0)" xlink:href="#F"/><use transform="matrix(0.010850694444444444,0,0,0.010850694444444444,56.0546875,0)" xlink:href="#t"/></g><g id="h"><use transform="matrix(0.010850694444444444,0,0,0.010850694444444444,0,0)" xlink:href="#s"/><use transform="matrix(0.010850694444444444,0,0,0.010850694444444444,12.955729166666666,0)" xlink:href="#t"/></g><g id="i"><use transform="matrix(0.010850694444444444,0,0,0.010850694444444444,0,0)" xlink:href="#x"/><use transform="matrix(0.010850694444444444,0,0,0.010850694444444444,12.6953125,0)" xlink:href="#w"/><use transform="matrix(0.010850694444444444,0,0,0.010850694444444444,26.01996527777778,0)" xlink:href="#A"/><use transform="matrix(0.010850694444444444,0,0,0.010850694444444444,31.40190972222222,0)" xlink:href="#w"/><use transform="matrix(0.010850694444444444,0,0,0.010850694444444444,44.7265625,0)" xlink:href="#v"/></g><path d="M98-1322v-168h1126v168H757V0H567v-1322H98" id="G"/><path d="M628 24c-324 0-524-230-524-574 0-343 198-582 503-582 237 0 487 146 487 559v75H286c9 234 145 362 343 362 132 0 231-58 273-172l174 48C1024-91 857 24 628 24zM287-650h624c-17-190-120-322-304-322-192 0-309 151-320 322zm237-614l140-294h201l-194 294H524" id="H"/><g id="j"><use transform="matrix(0.010850694444444444,0,0,0.010850694444444444,0,0)" xlink:href="#G"/><use transform="matrix(0.010850694444444444,0,0,0.010850694444444444,14.344618055555555,0)" xlink:href="#y"/><use transform="matrix(0.010850694444444444,0,0,0.010850694444444444,27.48480902777778,0)" xlink:href="#H"/><use transform="matrix(0.010850694444444444,0,0,0.010850694444444444,40.44053819444444,0)" xlink:href="#z"/><use transform="matrix(0.010850694444444444,0,0,0.010850694444444444,59.90668402777778,0)" xlink:href="#s"/></g><g id="k"><use transform="matrix(0.010850694444444444,0,0,0.010850694444444444,0,0)" xlink:href="#t"/><use transform="matrix(0.010850694444444444,0,0,0.010850694444444444,7.052951388888888,0)" xlink:href="#s"/><use transform="matrix(0.010850694444444444,0,0,0.010850694444444444,20.008680555555554,0)" xlink:href="#r"/><use transform="matrix(0.010850694444444444,0,0,0.010850694444444444,31.73828125,0)" xlink:href="#t"/><use transform="matrix(0.010850694444444444,0,0,0.010850694444444444,38.791232638888886,0)" xlink:href="#s"/></g><g id="l"><use transform="matrix(0.010850694444444444,0,0,0.010850694444444444,0,0)" xlink:href="#t"/><use transform="matrix(0.010850694444444444,0,0,0.010850694444444444,7.052951388888888,0)" xlink:href="#s"/><use transform="matrix(0.010850694444444444,0,0,0.010850694444444444,20.008680555555554,0)" xlink:href="#r"/><use transform="matrix(0.010850694444444444,0,0,0.010850694444444444,31.73828125,0)" xlink:href="#t"/><use transform="matrix(0.010850694444444444,0,0,0.010850694444444444,38.791232638888886,0)" xlink:href="#s"/></g><g id="m"><use transform="matrix(0.010850694444444444,0,0,0.010850694444444444,0,0)" xlink:href="#q"/><use transform="matrix(0.010850694444444444,0,0,0.010850694444444444,15.33203125,0)" xlink:href="#r"/><use transform="matrix(0.010850694444444444,0,0,0.010850694444444444,27.061631944444443,0)" xlink:href="#r"/><use transform="matrix(0.010850694444444444,0,0,0.010850694444444444,38.791232638888886,0)" xlink:href="#s"/><use transform="matrix(0.010850694444444444,0,0,0.010850694444444444,51.74696180555556,0)" xlink:href="#t"/></g><g id="n"><use transform="matrix(0.010850694444444444,0,0,0.010850694444444444,0,0)" xlink:href="#G"/><use transform="matrix(0.010850694444444444,0,0,0.010850694444444444,13.0859375,0)" xlink:href="#v"/><use transform="matrix(0.010850694444444444,0,0,0.010850694444444444,21.082899305555557,0)" xlink:href="#s"/><use transform="matrix(0.010850694444444444,0,0,0.010850694444444444,34.03862847222222,0)" xlink:href="#A"/><use transform="matrix(0.010850694444444444,0,0,0.010850694444444444,39.420572916666664,0)" xlink:href="#A"/><use transform="matrix(0.010850694444444444,0,0,0.010850694444444444,44.80251736111111,0)" xlink:href="#w"/></g><path d="M157-1118h181V80c1 225-123 350-364 338V252c126 9 184-48 183-172v-1198zm91-183c-68 0-125-53-125-119s57-119 125-119c69 0 126 53 126 119s-57 119-126 119" id="I"/><g id="o"><use transform="matrix(0.010850694444444444,0,0,0.010850694444444444,0,0)" xlink:href="#u"/><use transform="matrix(0.010850694444444444,0,0,0.010850694444444444,14.192708333333332,0)" xlink:href="#v"/><use transform="matrix(0.010850694444444444,0,0,0.010850694444444444,22.189670138888886,0)" xlink:href="#w"/><use transform="matrix(0.010850694444444444,0,0,0.010850694444444444,35.514322916666664,0)" xlink:href="#I"/><use transform="matrix(0.010850694444444444,0,0,0.010850694444444444,40.89626736111111,0)" xlink:href="#s"/><use transform="matrix(0.010850694444444444,0,0,0.010850694444444444,53.85199652777778,0)" xlink:href="#t"/></g><path d="M180 0v-1490h510c348 0 508 194 508 460 0 198-88 351-276 417L1256 0h-220L726-579c-117 2-238 0-356 1V0H180zm190-747h312c235 0 327-108 327-283 0-177-92-293-329-293H370v576" id="J"/><path d="M180 0v-1490h908v168H370v486h669v168H370v500h727V0H180" id="K"/><path d="M645 0H180v-1490h484c435 0 692 280 692 742 0 466-257 748-711 748zM370-168h263c363 0 539-218 539-580 0-358-176-574-521-574H370v1154" id="L"/><path d="M180 0v-1490h270l367 940c28 72 75 218 110 339 35-117 81-264 110-339l362-940h271V0h-187c2-448-5-837 7-1287-157 497-311 829-483 1287H842C666-458 514-784 354-1284c12 438 5 843 7 1284H180" id="M"/><path d="M295 13c-75 0-135-60-135-135s60-135 135-135 135 60 135 135S370 13 295 13" id="N"/><path d="M577 24c-279 0-473-224-473-580 0-354 195-576 474-576 218 0 287 134 324 193h14v-551h180V0H922v-173h-20C865-111 790 24 577 24zm27-161c203 0 314-172 314-421 0-247-108-413-314-413-212 0-317 181-317 413 0 235 108 421 317 421" id="O"/><g id="p"><use transform="matrix(0.010850694444444444,0,0,0.010850694444444444,0,0)" xlink:href="#J"/><use transform="matrix(0.010850694444444444,0,0,0.010850694444444444,14.301215277777777,0)" xlink:href="#K"/><use transform="matrix(0.010850694444444444,0,0,0.010850694444444444,27.65842013888889,0)" xlink:href="#q"/><use transform="matrix(0.010850694444444444,0,0,0.010850694444444444,42.990451388888886,0)" xlink:href="#L"/><use transform="matrix(0.010850694444444444,0,0,0.010850694444444444,59.02777777777778,0)" xlink:href="#M"/><use transform="matrix(0.010850694444444444,0,0,0.010850694444444444,79.1015625,0)" xlink:href="#K"/><use transform="matrix(0.010850694444444444,0,0,0.010850694444444444,92.45876736111111,0)" xlink:href="#N"/><use transform="matrix(0.010850694444444444,0,0,0.010850694444444444,98.86067708333334,0)" xlink:href="#z"/><use transform="matrix(0.010850694444444444,0,0,0.010850694444444444,118.32682291666666,0)" xlink:href="#O"/></g></defs></g></svg>